<svg t="1725505831887" class="icon" viewBox="0 0 1024 1024" version="1.1" xmlns="http://www.w3.org/2000/svg" p-id="16335" width="128" height="128"><path d="M725.76 938.652444H298.325333c-56.305778 0-94.008889-36.977778-96.497777-110.890666a14.307556 14.307556 0 0 0-3.896889-9.386667c-100.451556-105.173333-97.735111-230.542222 4.053333-359.196444a13.909333 13.909333 0 0 0 2.986667-8.035556c7.068444-190.634667 116.081778-365.824 307.057777-365.824 190.890667 0 299.904 175.189333 307.015112 365.824a13.710222 13.710222 0 0 0 2.986666 8.035556c101.731556 128.654222 104.433778 254.008889 4.039111 359.210666a14.321778 14.321778 0 0 0-3.911111 9.372445c-2.488889 73.927111-40.192 110.890667-96.455111 110.890666h0.028445zM379.477333 463.587556l53.532445 6.200888c98.730667 8.576 197.404444 1.052444 296.163555-22.471111 6.855111-1.607111 11.662222-8.106667 11.050667-15.118222-12.487111-145.024-95.246222-269.297778-228.209778-269.297778-132.977778 0-215.694222 124.302222-228.195555 269.340445-0.597333 6.997333 4.152889 13.454222 10.979555 15.075555 28.245333 6.755556 56.476444 12.16 84.707556 16.270223h-0.028445z m-30.222222 73.784888a1047.054222 1047.054222 0 0 1-83.342222-17.223111 14.364444 14.364444 0 0 0-14.990222 5.390223c-53.105778 73.187556-62.862222 135.566222-31.032889 193.635555 4.764444 8.675556 16.824889 9.784889 23.253333 2.261333a231.808 231.808 0 0 1 36.423111-34.133333c13.653333-10.311111 39.324444 69.546667 25.130667 83.086222-18.318222 17.422222-30.151111 36.081778-32.355556 51.896889-2.204444 15.872 10.097778 38.798222 25.941334 38.798222H725.76c15.872 0 28.16-22.926222 25.955556-38.798222-2.204444-15.644444-13.781333-34.048-31.687112-51.271111-14.350222-13.767111 12.999111-92.700444 27.377778-81.464889a231.623111 231.623111 0 0 1 33.479111 31.857778c6.428444 7.523556 18.488889 6.499556 23.239111-2.190222 31.886222-58.055111 22.186667-120.419556-30.976-193.607111a14.407111 14.407111 0 0 0-15.118222-5.404445 1008.824889 1008.824889 0 0 1-304.597333 28.814222 14.065778 14.065778 0 0 0-15.004445 13.511112l-2.545777 67.313777a38.769778 38.769778 0 1 1-77.496889-2.915555l2.801778-75.093334a14.122667 14.122667 0 0 0-11.904-14.464z" fill="#000000" p-id="16336"></path></svg>